<svg xmlns="http://www.w3.org/2000/svg" width="1094" height="360" viewBox="0 0 1094 360" font-family="Arial, Helvetica, sans-serif">
  <rect width="1094" height="360" fill="#ffffff"/>

  <path d="M24 12 L226 12 L254 180 L226 348 L24 348 Q12 348 12 336 L12 24 Q12 12 24 12 Z" fill="#F7BB49"/>
  <path d="M226 12 L440 12 L468 180 L440 348 L226 348 L254 180 Z" fill="#DB3E53"/>
  <path d="M440 12 L654 12 L682 180 L654 348 L440 348 L468 180 Z" fill="#369AB6"/>
  <path d="M654 12 L868 12 L896 180 L868 348 L654 348 L682 180 Z" fill="#3367A1"/>
  <path d="M868 12 L1070 12 Q1082 12 1082 24 L1082 336 Q1082 348 1070 348 L868 348 L896 180 Z" fill="#1A4A6E"/>

  <g fill="none" stroke="#ffffff" stroke-width="7" stroke-linejoin="round">
    <path d="M226 12 L254 180 L226 348"/>
    <path d="M440 12 L468 180 L440 348"/>
    <path d="M654 12 L682 180 L654 348"/>
    <path d="M868 12 L896 180 L868 348"/>
  </g>

  <!-- Panel 1: Breakpoint -->
  <g text-anchor="middle" fill="#ffffff">
    <circle cx="119" cy="88" r="33" fill="none" stroke="#ffffff" stroke-width="2.6"/>
    <text x="119" y="97" font-size="27" font-weight="bold">01</text>
    <text x="119" y="156" font-size="19" font-weight="bold">Breakpoint</text>
    <text x="119" y="186" font-size="12.3" fill-opacity="0.82">
      <tspan x="119" dy="0">Put a breakpoint on</tspan>
      <tspan x="119" dy="16.5">the line that loads</tspan>
      <tspan x="119" dy="16.5">the hidden code.</tspan>
    </text>
    <g transform="translate(119,302)">
      <circle cx="0" cy="0" r="13" fill="none" stroke="#ffffff" stroke-width="2.4"/>
      <circle cx="0" cy="0" r="5.5" fill="#ffffff"/>
    </g>
  </g>

  <!-- Panel 2: Run it -->
  <g text-anchor="middle" fill="#ffffff">
    <circle cx="347" cy="88" r="33" fill="none" stroke="#ffffff" stroke-width="2.6"/>
    <text x="347" y="97" font-size="27" font-weight="bold">02</text>
    <text x="347" y="156" font-size="19" font-weight="bold">Run it</text>
    <text x="347" y="186" font-size="12.3" fill-opacity="0.82">
      <tspan x="347" dy="0">Run in 32-bit dnSpy</tspan>
      <tspan x="347" dy="16.5">on a clean snapshot,</tspan>
      <tspan x="347" dy="16.5">host-only network.</tspan>
    </text>
    <g transform="translate(347,302)">
      <circle cx="0" cy="0" r="16" fill="none" stroke="#ffffff" stroke-width="2.4"/>
      <path d="M-5 -8 L9 0 L-5 8 Z" fill="#ffffff" stroke="none"/>
    </g>
  </g>

  <!-- Panel 3: It pauses -->
  <g text-anchor="middle" fill="#ffffff">
    <circle cx="561" cy="88" r="33" fill="none" stroke="#ffffff" stroke-width="2.6"/>
    <text x="561" y="97" font-size="27" font-weight="bold">03</text>
    <text x="561" y="156" font-size="19" font-weight="bold">It pauses</text>
    <text x="561" y="186" font-size="12.3" fill-opacity="0.82">
      <tspan x="561" dy="0">Execution stops on</tspan>
      <tspan x="561" dy="16.5">that line, before the</tspan>
      <tspan x="561" dy="16.5">code runs.</tspan>
    </text>
    <g transform="translate(561,302)" stroke="#ffffff" stroke-width="5" stroke-linecap="round">
      <path d="M-6 -11 L-6 11"/>
      <path d="M6 -11 L6 11"/>
    </g>
  </g>

  <!-- Panel 4: In memory -->
  <g text-anchor="middle" fill="#ffffff">
    <circle cx="775" cy="88" r="33" fill="none" stroke="#ffffff" stroke-width="2.6"/>
    <text x="775" y="97" font-size="27" font-weight="bold">04</text>
    <text x="775" y="156" font-size="19" font-weight="bold">In memory</text>
    <text x="775" y="186" font-size="12.3" fill-opacity="0.82">
      <tspan x="775" dy="0">The hidden stage is</tspan>
      <tspan x="775" dy="16.5">now plain in memory:</tspan>
      <tspan x="775" dy="16.5">byte[0x0000EE00].</tspan>
    </text>
    <g transform="translate(775,302)" fill="none" stroke="#ffffff" stroke-width="2.4" stroke-linecap="round" stroke-linejoin="round">
      <rect x="-11" y="-11" width="22" height="22" rx="2"/>
      <rect x="-4" y="-4" width="8" height="8"/>
      <path d="M-5 -11 L-5 -17 M0 -11 L0 -17 M5 -11 L5 -17 M-5 11 L-5 17 M0 11 L0 17 M5 11 L5 17 M-11 -5 L-17 -5 M-11 0 L-17 0 M-11 5 L-17 5 M11 -5 L17 -5 M11 0 L17 0 M11 5 L17 5"/>
    </g>
  </g>

  <!-- Panel 5: Grab it -->
  <g text-anchor="middle" fill="#ffffff">
    <circle cx="989" cy="88" r="33" fill="none" stroke="#ffffff" stroke-width="2.6"/>
    <text x="989" y="97" font-size="27" font-weight="bold">05</text>
    <text x="989" y="156" font-size="19" font-weight="bold">Grab it</text>
    <text x="989" y="186" font-size="12.3" fill-opacity="0.82">
      <tspan x="989" dy="0">Read the bytes and</tspan>
      <tspan x="989" dy="16.5">dump them to disk</tspan>
      <tspan x="989" dy="16.5">as a real file.</tspan>
    </text>
    <g transform="translate(989,302)" fill="none" stroke="#ffffff" stroke-width="2.4" stroke-linecap="round" stroke-linejoin="round">
      <path d="M0 -17 L0 7"/>
      <path d="M-8 -1 L0 7 L8 -1"/>
      <path d="M-13 12 L-13 18 L13 18 L13 12"/>
    </g>
  </g>
</svg>
